<svg data-v-fde0c5aa="" xmlns="http://www.w3.org/2000/svg" viewBox="0 0 300 300" class="iconLeft"><!----><defs data-v-fde0c5aa=""><!----></defs><rect data-v-fde0c5aa="" fill="transparent" x="0" y="0" width="300px" height="300px" class="logo-background-square"></rect><defs data-v-fde0c5aa=""><!----></defs><g data-v-fde0c5aa="" id="d2357bda-57b8-42b9-b9e2-cff1a0fa8c4a" fill="#000000" transform="matrix(2.6558890948004743,0,0,2.6558890948004743,98.97343691295849,114.30485168033702)"><path d="M2.66 14.29L2.66 17.18L1.26 17.18L1.26 8.43L4.69 8.43Q5.63 8.43 6.15 8.71Q6.68 8.99 6.91 9.63Q7.14 10.26 7.14 11.38L7.14 11.38Q7.14 12.95 6.62 13.62Q6.10 14.29 4.90 14.29L4.90 14.29L2.66 14.29ZM2.66 13.19L4.70 13.19Q5.25 13.19 5.46 13.06Q5.67 12.94 5.67 12.60L5.67 12.60L5.67 10.18Q5.67 9.84 5.46 9.72Q5.25 9.59 4.70 9.59L4.70 9.59L2.66 9.59L2.66 13.19ZM8.53 17.18L8.53 17.18ZM8.68 10.28L10.08 10.07L10.08 17.18L8.68 17.18L8.68 10.28ZM9.39 8.96Q8.88 8.96 8.70 8.79Q8.53 8.61 8.53 8.12L8.53 8.12Q8.53 7.62 8.71 7.43Q8.89 7.25 9.39 7.25L9.39 7.25Q9.88 7.25 10.06 7.43Q10.23 7.62 10.23 8.12L10.23 8.12Q10.23 8.61 10.07 8.79Q9.90 8.96 9.39 8.96L9.39 8.96ZM14.70 17.32Q13.66 17.32 13.13 17.01Q12.60 16.70 12.39 15.94Q12.18 15.18 12.18 13.68L12.18 13.68Q12.18 12.18 12.39 11.41Q12.60 10.64 13.13 10.34Q13.66 10.04 14.70 10.04L14.70 10.04Q15.27 10.04 15.90 10.11Q16.52 10.18 16.97 10.29L16.97 10.29L16.80 11.35Q15.79 11.14 14.85 11.14L14.85 11.14Q14.17 11.14 13.90 11.40Q13.64 11.66 13.64 12.32L13.64 12.32L13.64 16.06Q14.14 16.21 15.06 16.21L15.06 16.21Q15.51 16.21 15.94 16.14Q16.37 16.06 16.97 15.88L16.97 15.88L17.12 16.90Q16.65 17.09 16.01 17.21Q15.37 17.32 14.70 17.32L14.70 17.32ZM22.01 11.14L20.76 11.14L20.76 16.14Q21.27 16.20 21.76 16.21L21.76 16.21L21.67 17.16Q20.89 17.32 20.40 17.32L20.40 17.32Q19.87 17.32 19.61 17.06Q19.36 16.80 19.36 16.27L19.36 16.27L19.36 11.14L18.38 11.14L18.38 10.18L19.36 10.18L19.36 8.68L20.76 8.33L20.76 10.18L22.01 10.18L22.01 11.14ZM29.44 10.18L29.44 17.18L28.80 17.18L28.42 16.48Q27.86 16.91 27.20 17.12Q26.53 17.32 25.68 17.32L25.68 17.32Q24.72 17.32 24.28 16.96Q23.83 16.60 23.83 15.85L23.83 15.85L23.83 10.18L25.23 10.18L25.23 16.24L26.85 16.24Q27.54 16.24 27.79 16.07Q28.04 15.90 28.04 15.43L28.04 15.43L28.04 10.18L29.44 10.18ZM32.62 10.18L33.11 11.28Q33.74 10.72 34.19 10.42Q34.64 10.11 35.03 9.97L35.03 9.97L35.17 11.34Q34.71 11.48 34.21 11.73Q33.71 11.97 33.36 12.24L33.36 12.24L33.36 17.18L31.96 17.18L31.96 10.18L32.62 10.18ZM36.48 17.18L36.48 17.18ZM36.64 10.28L38.04 10.07L38.04 17.18L36.64 17.18L36.64 10.28ZM37.35 8.96Q36.83 8.96 36.66 8.79Q36.48 8.61 36.48 8.12L36.48 8.12Q36.48 7.62 36.67 7.43Q36.85 7.25 37.35 7.25L37.35 7.25Q37.84 7.25 38.02 7.43Q38.19 7.62 38.19 8.12L38.19 8.12Q38.19 8.61 38.02 8.79Q37.86 8.96 37.35 8.96L37.35 8.96ZM43.88 8.88L42.38 8.75L42.38 10.18L43.50 10.18L43.50 11.14L42.38 11.14L42.38 17.18L40.98 17.18L40.98 11.14L40.00 11.14L40.00 10.18L40.98 10.18Q41.03 9.21 41.20 8.69Q41.37 8.16 41.71 7.95Q42.06 7.73 42.67 7.73L42.67 7.73Q43.34 7.73 43.96 7.87L43.96 7.87L43.88 8.88ZM48.79 10.18L50.18 10.18L48.17 16.76Q47.84 17.86 47.46 18.48Q47.08 19.10 46.56 19.36Q46.05 19.63 45.26 19.63L45.26 19.63Q44.58 19.63 44.04 19.47L44.04 19.47L44.10 18.73L45.07 18.61Q45.61 18.54 45.90 18.40Q46.19 18.27 46.37 17.99Q46.55 17.71 46.70 17.18L46.70 17.18L46.83 16.76L46.05 16.76L44.04 10.18L45.43 10.18L47.04 15.57L47.18 15.57L48.79 10.18ZM56.36 17.18L55.79 15.22L52.44 15.22L51.87 17.18L50.47 17.18L53.06 8.43L55.17 8.43L57.76 17.18L56.36 17.18ZM52.77 14.11L55.47 14.11L54.18 9.72L54.05 9.72L52.77 14.11ZM59.23 8.43L60.63 8.43L60.63 17.18L59.23 17.18L59.23 8.43Z"></path></g><defs data-v-fde0c5aa=""><linearGradient data-v-fde0c5aa="" gradientTransform="rotate(25)" id="63d2779f-e05e-4d05-b1d5-d3393d6c809a" x1="0%" y1="0%" x2="100%" y2="0%"><stop data-v-fde0c5aa="" offset="0%" stop-color="#288B58" stop-opacity="1"></stop><stop data-v-fde0c5aa="" offset="100%" stop-color="#1522F1" stop-opacity="1"></stop></linearGradient></defs><g data-v-fde0c5aa="" id="c1a41875-9394-4f7c-a7f2-faf2d2b2d6e6" stroke="none" fill="url(#63d2779f-e05e-4d05-b1d5-d3393d6c809a)" transform="matrix(1.02749702389747,0,0,1.02749702389747,38.97250297610253,124.31257440256326)"><style></style><path d="M31.8 12.3h-.2c-.8 0-1.5.6-1.6 1.4-.1.4 0 .9.3 1.2.3.4.6.6 1.1.7.9.1 1.7-.5 1.9-1.4 0-.9-.6-1.7-1.5-1.9z"></path><path d="M26.6 6l-3.1 20.1 5-3.7 2.8 3.7 7.5-5.5 2.8 3.8L44 8.7 26.6 6zm8.7 8.5c-.3 1.9-1.9 3.3-3.8 3.3h-.6c-1-.2-1.9-.7-2.5-1.5-.6-.8-.9-1.8-.7-2.9.3-2.1 2.3-3.5 4.4-3.2 2.1.3 3.5 2.2 3.2 4.3zM27.5 41.4l-.1-.9L15 38.6 18.6 15 6 16.9 10.2 44z"></path><path d="M29.7 40.9l.3 2.3-21.7 3.3-4.8-31.4 15.4-2.4.4-2.3L1 13.2 6.5 49l26-4-.6-3.8z"></path><path d="M22.9 1l-5.5 35.8 26.1 4L49 5 22.9 1zm18.8 37.2L20 34.9l4.8-31.4 21.7 3.3-4.8 31.4z"></path><path d="M30.8 29.3l-2.7-3.8-5 3.7-.6 3.9 17.3 2.6 1.3-8.2-2.8-3.7z"></path></g><!----></svg>